<svg id="Camada_1" data-name="Camada 1" xmlns="http://www.w3.org/2000/svg" viewBox="0 0 55.66 55.66"><defs><style>.cls-1{fill:#bdccd1;}.cls-2{fill:#7c9aa4;}.cls-3{fill:#fff;}</style></defs><path class="cls-1" d="M49.6,24.17V38.88c-.15-.1-.14,0-.17.11a4.54,4.54,0,0,1-4.73,3.36h-26c0-.15,0-.31,0-.47v-16a.66.66,0,0,1,.08-.48,5.74,5.74,0,0,1,1.76,3.38.88.88,0,0,0,.92.86.9.9,0,0,0,.87-.92,3,3,0,0,0,0-.59,7.31,7.31,0,0,0-1.81-3.55c-.09-.11-.25-.18-.22-.38H49.6Z"/><path class="cls-1" d="M18.74,13.32h26a4.54,4.54,0,0,1,4.69,3.36c0,.07,0,.21.17.11v5.61H23.16c2.07-1.74,2.46-3.26,1.23-4.73a3.58,3.58,0,0,0-2.91-1.58c-1.29.06-2,1-2.74,1.95Z"/><path class="cls-2" d="M18.74,13.32V18c.75-1,1.45-1.89,2.74-1.95a3.58,3.58,0,0,1,2.91,1.58c1.23,1.47.84,3-1.23,4.73H49.6v1.78H20.31c0,.2.13.27.22.38a7.31,7.31,0,0,1,1.81,3.55,3,3,0,0,1,0,.59.9.9,0,0,1-.87.92.88.88,0,0,1-.92-.86,5.74,5.74,0,0,0-1.76-3.38.66.66,0,0,0-.08.48v16c0,.16,0,.32,0,.47a13.37,13.37,0,0,1-1.79,0V25.42a5.19,5.19,0,0,0-1.83,3.28.9.9,0,0,1-.47.8.85.85,0,0,1-.93,0,1,1,0,0,1-.4-1A6.87,6.87,0,0,1,15,24.83l.54-.66H6.06V22.39h6.49C10.12,20.21,10,19,11.93,17a2.94,2.94,0,0,1,2.16-.93c1.35,0,2.09.89,2.79,1.84,0,0,.06,0,.06-.05,0-1.51,0-3,0-4.54A13.37,13.37,0,0,1,18.74,13.32ZM19.08,22a12.25,12.25,0,0,0,3.22-1.32c1.21-.77,1.26-1.37.24-2.38-.67-.65-1.26-.64-1.83.08A10.54,10.54,0,0,0,19.08,22Zm-2.45,0a12.54,12.54,0,0,0-1.33-3.2c-.76-1.22-1.43-1.28-2.39-.22-.67.75-.64,1.27.18,1.87A11.31,11.31,0,0,0,16.63,22Z"/><path class="cls-1" d="M6.06,24.17H15.5l-.54.66a6.87,6.87,0,0,0-1.64,3.62,1,1,0,0,0,.4,1,.85.85,0,0,0,.93,0,.9.9,0,0,0,.47-.8A5.19,5.19,0,0,1,17,25.42V42.34c-2.09,0-4.19,0-6.29,0A4.52,4.52,0,0,1,6.23,39c0-.08,0-.26-.17-.16Z"/><path class="cls-1" d="M17,13.32c0,1.51,0,3,0,4.54,0,0,0,0-.06.05-.7-.95-1.44-1.87-2.79-1.84a2.94,2.94,0,0,0-2.16.93c-1.93,2-1.81,3.21.62,5.39H6.06V16.78c.15.1.14,0,.17-.12a4.54,4.54,0,0,1,4.69-3.35Z"/><path class="cls-1" d="M19.08,22a10.54,10.54,0,0,1,1.63-3.62c.57-.72,1.16-.73,1.83-.08,1,1,1,1.61-.24,2.38A12.25,12.25,0,0,1,19.08,22Z"/><path class="cls-1" d="M16.63,22a11.31,11.31,0,0,1-3.54-1.55c-.82-.6-.85-1.12-.18-1.87,1-1.06,1.63-1,2.39.22A12.54,12.54,0,0,1,16.63,22Z"/><path class="cls-3" d="M28.57,36.71l-.86-1.24h-.94v1.24h-1V32.27h1.92a2.49,2.49,0,0,1,1,.2,1.53,1.53,0,0,1,.67.55,1.62,1.62,0,0,1,.23.86,1.46,1.46,0,0,1-.91,1.4l1,1.43Zm-.26-3.4a1,1,0,0,0-.7-.2h-.84v1.55h.84a1,1,0,0,0,.7-.21.8.8,0,0,0,0-1.14Z"/><path class="cls-3" d="M33.37,36.3a1.86,1.86,0,0,1-1.1.46v.71h-.64v-.69a3.69,3.69,0,0,1-.89-.16,2.47,2.47,0,0,1-.69-.35l.35-.77a2.19,2.19,0,0,0,.57.3,2.53,2.53,0,0,0,.66.15V34.89a4.57,4.57,0,0,1-.76-.24,1.43,1.43,0,0,1-.52-.39,1,1,0,0,1-.21-.68,1.23,1.23,0,0,1,.39-.91,1.83,1.83,0,0,1,1.1-.46v-.7h.64v.69a2.73,2.73,0,0,1,1.29.39l-.32.78a2.6,2.6,0,0,0-1-.33v1.08a3.93,3.93,0,0,1,.75.23,1.3,1.3,0,0,1,.52.38,1.06,1.06,0,0,1,.21.68A1.21,1.21,0,0,1,33.37,36.3Zm-2.09-2.51a1.27,1.27,0,0,0,.35.17v-.9a.61.61,0,0,0-.35.18.4.4,0,0,0-.12.29A.34.34,0,0,0,31.28,33.79Zm1.33,2a.36.36,0,0,0,.11-.27.3.3,0,0,0-.11-.26,1,1,0,0,0-.34-.18v.87A.72.72,0,0,0,32.61,35.76Z"/><path class="cls-3" d="M35.82,32.27v4.44h-1V33.09H33.9v-.82Z"/><path class="cls-3" d="M37.51,36.51a1.81,1.81,0,0,1-.67-.79,3.15,3.15,0,0,1,0-2.46,1.81,1.81,0,0,1,.67-.79,1.82,1.82,0,0,1,2.65.79,3.27,3.27,0,0,1,0,2.46,1.83,1.83,0,0,1-.68.79,1.87,1.87,0,0,1-2,0Zm1.62-.94a2.55,2.55,0,0,0,0-2.16.74.74,0,0,0-1.26,0,2.55,2.55,0,0,0,0,2.16.74.74,0,0,0,1.26,0Z"/><path class="cls-3" d="M41.82,36.51a1.83,1.83,0,0,1-.68-.79,3.27,3.27,0,0,1,0-2.46,1.84,1.84,0,0,1,2.65-.79,1.81,1.81,0,0,1,.67.79,3.15,3.15,0,0,1,0,2.46,1.81,1.81,0,0,1-.67.79,1.87,1.87,0,0,1-2,0Zm1.62-.94a2.65,2.65,0,0,0,0-2.16.73.73,0,0,0-.64-.35.74.74,0,0,0-.63.35,2.65,2.65,0,0,0,0,2.16.74.74,0,0,0,.63.35A.73.73,0,0,0,43.44,35.57Z"/></svg>