<svg id="Camada_1" data-name="Camada 1" xmlns="http://www.w3.org/2000/svg" viewBox="0 0 55.66 55.66"><defs><style>.cls-1{fill:#bdccd1;}.cls-2{fill:#96aeb6;}.cls-3{fill:#fff;}.cls-4{fill:#d2d9e3;}.cls-5{fill:#f7ffff;}.cls-6{fill:#585f69;opacity:0.1;}.cls-7{fill:#c9d1db;}.cls-8{fill:#7c9aa4;}</style></defs><rect class="cls-1" x="3.01" y="18.05" width="49.64" height="23.75"/><rect class="cls-2" x="3.01" y="36.56" width="49.64" height="5.24"/><rect class="cls-3" x="37.12" y="29.08" width="13.39" height="2.99"/><path class="cls-4" d="M51.25,32.8H36.39V28.34H51.25Zm-14.13-.73H50.51v-3H37.12Z"/><path class="cls-5" d="M8.62,24.09h19.5a.63.63,0,0,1,.63.63h0a.63.63,0,0,1-.63.63H8.62A.63.63,0,0,1,8,24.72H8A.63.63,0,0,1,8.62,24.09Z"/><path class="cls-5" d="M8.62,28.19H33.47a.63.63,0,0,1,.63.62h0a.63.63,0,0,1-.63.63H8.62A.63.63,0,0,1,8,28.81H8A.63.63,0,0,1,8.62,28.19Z"/><path class="cls-5" d="M8.62,31.76H33.47a.63.63,0,0,1,.63.63h0a.63.63,0,0,1-.63.63H8.62A.63.63,0,0,1,8,32.39H8A.63.63,0,0,1,8.62,31.76Z"/><path class="cls-5" d="M34.73,23.1h16a.63.63,0,0,1,.63.63h0a.63.63,0,0,1-.63.63h-16a.63.63,0,0,1-.63-.63h0A.63.63,0,0,1,34.73,23.1Z"/><polygon class="cls-6" points="43.87 25.39 44.1 25.39 44.16 36.12 44.69 41.17 44.75 41.8 46.24 41.8 46.3 41.17 46.73 36.12 46.68 25.37 46.91 25.37 46.86 18.05 43.83 18.05 43.87 25.39"/><path class="cls-7" d="M48.89,11.75,49,20.83a.6.6,0,0,0-.44.56.59.59,0,0,0,.59.58.58.58,0,0,0,.58-.58.57.57,0,0,0-.23-.44l-.06-9.47-1.14-.73v.88Z"/><path class="cls-8" d="M46.09,40.08h1.6l.44-5-.06-10.78-2.57,0L45.56,35Z"/><path class="cls-8" d="M46.09,9.29a.93.93,0,0,0-.91.91l.09,14.11,3,0-.09-14.11a.86.86,0,0,0-.88-.88Z"/><path class="cls-7" d="M46.09,40.08l.52,5.32h.59l.49-5.32Z"/><path class="cls-7" d="M48.3,22.81l-3,0V22l3,0Z"/><path class="cls-7" d="M45.18,10.35h3v.41h-3Z"/><path class="cls-7" d="M48.31,24.28l-3,0v-.88l3,0Z"/><path class="cls-8" d="M47.2,45.4l-.18.89a.13.13,0,0,1-.24,0l-.17-.89Z"/></svg>