<svg id="Camada_1" data-name="Camada 1" xmlns="http://www.w3.org/2000/svg" viewBox="0 0 33 33"><defs><style>.cls-1{fill:#748088;}</style></defs><path class="cls-1" d="M29.32,14.33a8.53,8.53,0,0,0-3.11-4.71,8.75,8.75,0,0,0-5.4-1.82h-8.6A8.77,8.77,0,0,0,6.67,9.71a8.71,8.71,0,0,0-2.82,9.52,8.69,8.69,0,0,0,8.35,6h8.58a10,10,0,0,0,1.31-.08,8.72,8.72,0,0,0,7.23-10.79Zm-3.1,5.2a6.08,6.08,0,0,1-3.89,2.92,6.35,6.35,0,0,1-1.43.17H12.1A6.12,6.12,0,0,1,12,10.38l2.45,0c.67,0-.77,0-.09,0H20.9a6.12,6.12,0,0,1,5.32,9.15Z"/><path class="cls-1" d="M20,11.65H20a4.85,4.85,0,0,0-.06,9.7H20A4.85,4.85,0,0,0,23.39,20a4.78,4.78,0,0,0,1.44-3.4A4.87,4.87,0,0,0,20,11.65Zm2.49,4.84A2.51,2.51,0,0,1,20,19h0a2.52,2.52,0,1,1,2.51-2.53Z"/></svg>