<svg id="Camada_1" data-name="Camada 1" xmlns="http://www.w3.org/2000/svg" viewBox="0 0 33 33"><defs><style>.cls-1{fill:#748088;}</style></defs><path class="cls-1" d="M24.07,8.4a2.2,2.2,0,0,0-.34-.19c-2.33-.94-4.65-1.88-7-2.8a.92.92,0,0,0-.61,0c-2.41.94-4.81,1.91-7.21,2.87a1.25,1.25,0,0,0-.17.13l.07,0-.07,0a1.82,1.82,0,0,0,.17.14c2.4,1,4.8,1.93,7.21,2.87a.86.86,0,0,0,.61,0c2.34-.92,4.66-1.85,7-2.79a3.65,3.65,0,0,0,.34-.19l-.05,0Z"/><path class="cls-1" d="M15.33,13.72a.72.72,0,0,0-.4-.46c-2.28-.93-7.6-3-8.07-3.22,0,.26,0,2.26,0,2.26s0,6.76,0,7.74a.67.67,0,0,0,.44.71c2.55,1.26,5.1,2.54,7.64,3.82l.43.16C15.34,23.87,15.34,14.44,15.33,13.72Z"/><path class="cls-1" d="M25.93,10.07l-.35.09-7.8,3.12a.47.47,0,0,0-.34.52c0,.69,0,10.5,0,10.91a1,1,0,0,0,.25-.06q4-2,8-4a.63.63,0,0,0,.25-.47C26,19.3,25.93,10.83,25.93,10.07Z"/></svg>