<svg id="Camada_1" data-name="Camada 1" xmlns="http://www.w3.org/2000/svg" viewBox="0 0 55.66 55.66"><defs><style>.cls-1{fill:#bdccd1;}.cls-2{fill:#808792;}.cls-3{fill:#454c56;}.cls-4{fill:#96aeb6;}</style></defs><rect class="cls-1" x="4.51" y="11.94" width="46.64" height="31.78" rx="3.69"/><path class="cls-2" d="M17,19.89v.61H18v.43H17v.84h-.53V19.46h1.74v.43Z"/><path class="cls-2" d="M18.87,19.46h.54v2.31h-.54Z"/><path class="cls-2" d="M20.29,19.46h1.05a1.53,1.53,0,0,1,.66.14,1.11,1.11,0,0,1,.45.41,1.08,1.08,0,0,1,.16.6,1.11,1.11,0,0,1-.16.61,1.09,1.09,0,0,1-.45.4,1.4,1.4,0,0,1-.66.15H20.29Zm1,1.87a.81.81,0,0,0,.55-.19.69.69,0,0,0,.21-.53.67.67,0,0,0-.21-.52.77.77,0,0,0-.55-.19h-.49v1.43Z"/><path class="cls-2" d="M25.13,21.34v.43H23.34V19.46h1.75v.43H23.87v.5H25v.41H23.87v.54Z"/><path class="cls-2" d="M25.89,19.46h.53v1.87h1.16v.44H25.89Z"/><path class="cls-2" d="M28.21,19.46h.53v2.31h-.53Z"/><path class="cls-2" d="M29.62,19.46h1.05a1.6,1.6,0,0,1,.67.14,1,1,0,0,1,.44.41,1.08,1.08,0,0,1,.17.6,1.12,1.12,0,0,1-.17.61,1,1,0,0,1-.44.4,1.47,1.47,0,0,1-.67.15H29.62Zm1,1.87a.82.82,0,0,0,.56-.19.69.69,0,0,0,.2-.53.66.66,0,0,0-.2-.52.78.78,0,0,0-.56-.19h-.48v1.43Z"/><path class="cls-2" d="M34.17,21.27H33.09l-.2.5h-.55l1-2.31h.53l1,2.31h-.56Zm-.17-.4L33.63,20l-.36.89Z"/><path class="cls-2" d="M35.5,19.46h1a1.6,1.6,0,0,1,.67.14,1.11,1.11,0,0,1,.45.41,1.17,1.17,0,0,1,.16.6,1.2,1.2,0,0,1-.16.61,1.09,1.09,0,0,1-.45.4,1.47,1.47,0,0,1-.67.15h-1Zm1,1.87a.81.81,0,0,0,.55-.19.69.69,0,0,0,.2-.53.66.66,0,0,0-.2-.52.77.77,0,0,0-.55-.19H36v1.43Z"/><path class="cls-2" d="M40.35,21.34v.43H38.56V19.46H40.3v.43H39.09v.5h1.07v.41H39.09v.54Z"/><path class="cls-3" d="M10.22,26.74H9.83v4.8H15v-4.8H10.22Zm4.44.67v3.74H10.22v-4h4.44Z"/><path class="cls-3" d="M17.92,26.74h-.39v4.8h5.21v-4.8H17.92Zm4.43.67v3.74H17.92v-4h4.43Z"/><path class="cls-3" d="M25.61,26.74h-.39v4.8h5.22v-4.8H25.61Zm4.44.67v3.74H25.61v-4h4.44Z"/><path class="cls-3" d="M33.31,26.74h-.39v4.8h5.21v-4.8H33.31Zm4.43.67v3.74H33.31v-4h4.43Z"/><path class="cls-3" d="M45.44,26.74H40.62v4.8h5.21v-4.8Zm0,.67v3.74H41v-4h4.44Z"/><path class="cls-3" d="M10.22,33.28H9.83v4.79H15V33.28H10.22Zm4.44.66v3.74H10.22v-4h4.44Z"/><path class="cls-3" d="M17.92,33.28h-.39v4.79h5.21V33.28H17.92Zm4.43.66v3.74H17.92v-4h4.43Z"/><path class="cls-3" d="M25.61,33.28h-.39v4.79h5.22V33.28H25.61Zm4.44.66v3.74H25.61v-4h4.44Z"/><path class="cls-3" d="M33.31,33.28h-.39v4.79h5.21V33.28H33.31Zm4.43.66v3.74H33.31v-4h4.43Z"/><polygon class="cls-4" points="45.44 33.28 45.83 33.28 45.83 33.66 45.83 37.68 45.83 38.07 40.62 38.07 40.62 33.28 41 33.28 45.44 33.28"/></svg>