<svg id="Camada_1" data-name="Camada 1" xmlns="http://www.w3.org/2000/svg" viewBox="0 0 55.66 55.66"><defs><style>.cls-1{fill:#7c9aa4;}.cls-2{fill:#9eb4bb;}.cls-3{fill:#757d87;}.cls-4{fill:#cad2dc;}.cls-5{fill:#96aeb6;}.cls-6{fill:#bdccd1;}.cls-7{fill:#f7ffff;}</style></defs><rect class="cls-1" x="18.78" y="7.94" width="20.03" height="39.63" transform="translate(-6.31 46.91) rotate(-72.57)"/><path class="cls-2" d="M44.55,37.43l2.71-8.62a3.63,3.63,0,0,1-2.39-4.57L17.62,15.68A3.66,3.66,0,0,1,13,18.07l-2.71,8.62a3.63,3.63,0,0,1,2.39,4.57L40,39.82A3.66,3.66,0,0,1,44.55,37.43Z"/><path class="cls-1" d="M30.88,21.1c-2.8-.88-6,1.38-7.15,5.06s.18,7.36,3,8.24,6-1.38,7.16-5.06S33.68,22,30.88,21.1Z"/><path class="cls-1" d="M14.33,21.94a1.2,1.2,0,0,0-1.52.79,1.21,1.21,0,0,0,.8,1.52,1.2,1.2,0,0,0,1.52-.79A1.21,1.21,0,0,0,14.33,21.94Z"/><path class="cls-3" d="M44,31.24a1.21,1.21,0,0,0-1.52.79A1.22,1.22,0,1,0,44,31.24Z"/><path class="cls-4" d="M26.91,31a1.44,1.44,0,0,1-.72-.84,2,2,0,0,1,0-1.2l.15-.46,1,.33-.17.53c-.12.41,0,.67.38.79s.64,0,.78-.45a1.44,1.44,0,0,0,0-.77,3.52,3.52,0,0,0-.51-1,4.24,4.24,0,0,1-.64-1.29,2.19,2.19,0,0,1,.06-1.13,2,2,0,0,1,.63-1A1.49,1.49,0,0,1,29,24.3l.19-.61.9.28-.19.61a1.47,1.47,0,0,1,.71.83,2,2,0,0,1,0,1.19l-.07.2-1-.32.08-.28c.13-.41,0-.68-.35-.79s-.62,0-.74.43a1.21,1.21,0,0,0,0,.73,3.82,3.82,0,0,0,.51,1,4.46,4.46,0,0,1,.63,1.3A2.2,2.2,0,0,1,29.53,30a2,2,0,0,1-.66,1,1.43,1.43,0,0,1-1.06.28l-.22.7-.9-.28Z"/><rect class="cls-5" x="4.96" y="23.37" width="39.63" height="20.03"/><path class="cls-6" d="M42.71,37.9v-9a3.65,3.65,0,0,1-3.65-3.65H10.49a3.65,3.65,0,0,1-3.65,3.65v9a3.65,3.65,0,0,1,3.65,3.65H39.06A3.65,3.65,0,0,1,42.71,37.9Z"/><ellipse class="cls-5" cx="24.77" cy="33.39" rx="5.31" ry="6.97"/><path class="cls-5" d="M9.23,32.17a1.22,1.22,0,1,0,1.22,1.22A1.21,1.21,0,0,0,9.23,32.17Z"/><path class="cls-5" d="M40.28,32.17a1.22,1.22,0,1,0,1.21,1.22A1.22,1.22,0,0,0,40.28,32.17Z"/><path class="cls-7" d="M23.91,37.39a1.46,1.46,0,0,1-.93-.58,1.92,1.92,0,0,1-.33-1.16v-.48h1.1v.56c0,.42.2.64.6.64s.6-.22.6-.66a1.37,1.37,0,0,0-.21-.75,3.32,3.32,0,0,0-.78-.77,4.06,4.06,0,0,1-1-1,2.12,2.12,0,0,1-.28-1.1A1.88,1.88,0,0,1,23,30.93a1.42,1.42,0,0,1,.91-.58v-.64h.94v.64a1.45,1.45,0,0,1,.93.57,2,2,0,0,1,.32,1.15v.22H25V32c0-.43-.19-.65-.58-.65s-.58.21-.58.63a1.25,1.25,0,0,0,.21.7,3.75,3.75,0,0,0,.78.77,4.25,4.25,0,0,1,1,1.06,2.2,2.2,0,0,1,.29,1.12,2,2,0,0,1-.33,1.18,1.46,1.46,0,0,1-.93.58v.74h-.94Z"/></svg>