<svg id="Camada_1" data-name="Camada 1" xmlns="http://www.w3.org/2000/svg" viewBox="0 0 55.66 55.66"><defs><style>.cls-1{fill:#bdccd1;}.cls-2{fill:#96aeb6;}.cls-3{fill:#7c9aa4;}.cls-4{fill:#adc0c6;}.cls-5{fill:#fff;}</style></defs><path class="cls-1" d="M48.17,22.34V43.88s0-.06,0-.06a.08.08,0,0,0-.06,0,1.5,1.5,0,0,1-1.36.81H16A1.42,1.42,0,0,1,14.51,43a1.69,1.69,0,0,0,.7-.15c1.46-.58,2.93-1.14,4.38-1.75a2.36,2.36,0,0,0,1.17-.63H43.64c.24,0,.33-.09.32-.33,0-.63,0-1.27,0-1.9s0-.57-.56-.57H30l-3.06,0a.54.54,0,0,1,.31-.3l1.24-.71a71.66,71.66,0,0,0,7.85-5.32,8.53,8.53,0,0,0,1.57-1.37h5.56c.38,0,.5-.12.49-.5,0-1.24,0-2.48,0-3.73,0-.66,0-.66-.63-.7a.66.66,0,0,1,.18-.34c.35-.4.72-.8,1.06-1.22A16.81,16.81,0,0,0,46,21.54a1.71,1.71,0,0,1,2,.76S48.09,22.44,48.17,22.34Z"/><path class="cls-2" d="M41.15,18.78c0,.76,0,1.52,0,2.28a1.24,1.24,0,0,0,.05.47l-.8,0q-12.19,0-24.39,0A1.46,1.46,0,0,0,14.49,23c0,.19,0,.37,0,.56,0,3.53,0,7.07,0,10.61H9A1.43,1.43,0,0,1,7.6,33.3a.08.08,0,0,0-.07,0s0,0,0,.05V18.77H41.15Z"/><path class="cls-3" d="M41.15,18.78H7.49V14.48H41.15Z"/><path class="cls-2" d="M41.15,14.47H7.49V11.86c.15.06.14-.1.19-.16A1.43,1.43,0,0,1,8.93,11H39.7a1.4,1.4,0,0,1,1.45,1.42C41.18,13.09,41.15,13.78,41.15,14.47Z"/><path class="cls-4" d="M14.47,34.13c0-3.54,0-7.08,0-10.61,0-.19,0-.37,0-.56A1.46,1.46,0,0,1,16,21.54q12.19,0,24.39,0l.8,0H46a16.81,16.81,0,0,1-1.46,1.9c-.34.42-.71.82-1.06,1.22a.66.66,0,0,0-.18.34c-.19,0-.37,0-.56,0H37.53c-.57,0-.58,0-.58.59v3.3c0,1,0,1,1,1a8.53,8.53,0,0,1-1.57,1.37,71.66,71.66,0,0,1-7.85,5.32l-1.24.71a.54.54,0,0,0-.31.3c-.19,0-.39,0-.59,0H18.48c-.36,0-.5.1-.49.47,0,.64,0,1.27,0,1.9,0,.32.1.45.43.44.78,0,1.56,0,2.34,0a2.36,2.36,0,0,1-1.17.63c-1.45.61-2.92,1.17-4.38,1.75a1.69,1.69,0,0,1-.7.15c0-2.38,0-4.75,0-7.13Zm10.58-6.3H18.14c-.91,0-.81-.14-.82.82,0,.59,0,.59.59.59H31.85c1,0,.87.13.91-.91,0-.41-.13-.52-.52-.51Zm2.11-1.41h4.76c.93,0,.82.11.83-.82,0-.56,0-.56-.58-.56H22.4c-1,0-.85-.13-.88.87,0,.39.1.53.51.52C23.74,26.4,25.45,26.41,27.16,26.42Zm-8.45,0h.43c1.14,0,1,.23,1-1.06,0-.24-.1-.32-.33-.32-.5,0-1,0-1.5,0-1.1,0-1-.22-1,1v0c0,.22.11.31.32.3Z"/><path class="cls-5" d="M20.76,40.47c-.78,0-1.56,0-2.34,0-.33,0-.43-.12-.43-.44,0-.63,0-1.26,0-1.9,0-.37.13-.47.49-.47h7.88c.2,0,.4,0,.59,0l3.06,0H43.4c.56,0,.56,0,.56.57s0,1.27,0,1.9c0,.24-.08.34-.32.33H20.76Z"/><path class="cls-5" d="M37.92,29.93c-1,0-1,0-1-1v-3.3c0-.59,0-.59.58-.59h5.24c.19,0,.37,0,.56,0,.63,0,.63,0,.63.7,0,1.25,0,2.49,0,3.73,0,.38-.11.51-.49.5Z"/><path class="cls-5" d="M25.05,27.83h7.19c.39,0,.53.1.52.51,0,1,.13.91-.91.91H17.91c-.59,0-.59,0-.59-.59,0-1-.09-.82.82-.82Z"/><path class="cls-5" d="M27.16,26.41c-1.71,0-3.42,0-5.13,0-.41,0-.52-.13-.51-.52,0-1-.09-.87.88-.87h9.77c.58,0,.58,0,.58.56,0,.93.1.82-.83.82C30.33,26.42,28.74,26.42,27.16,26.41Z"/><path class="cls-5" d="M18.71,26.41H17.64c-.21,0-.33-.08-.32-.3v0c0-1.26-.13-1,1-1,.5,0,1,0,1.5,0,.23,0,.33.08.33.32,0,1.29.16,1-1,1.06h-.43Z"/></svg>