<svg id="Camada_1" data-name="Camada 1" xmlns="http://www.w3.org/2000/svg" viewBox="0 0 33 33"><defs><style>.cls-1{fill:#748088;}</style></defs><path class="cls-1" d="M16.73,26.78H15.64l-.11-.07a1.58,1.58,0,0,1-.93-1.45,6.42,6.42,0,0,1,0-.76c0-.18-.06-.22-.23-.24a11.3,11.3,0,0,1-2.7-.51,1.9,1.9,0,0,1-1.3-2.23,1.74,1.74,0,0,1,2.39-1.39,7.81,7.81,0,0,0,3,.49,3.43,3.43,0,0,0,1.3-.26,1.2,1.2,0,0,0,.68-1.61,1.59,1.59,0,0,0-.65-.71,7.59,7.59,0,0,0-1.83-.84,12.46,12.46,0,0,1-2.83-1.29,4.48,4.48,0,0,1-2.24-3.42A4.64,4.64,0,0,1,11.6,8.61a6.2,6.2,0,0,1,3-1.58c.14,0,.17-.08.17-.21,0-.28,0-.55,0-.83a1.58,1.58,0,0,1,1-1.5l.12-.07h.88l.1.06A1.59,1.59,0,0,1,17.92,6c0,.18,0,.37,0,.55s0,.18.18.2c.57.07,1.13.14,1.7.25a1.85,1.85,0,0,1,1.69,1.6,1.76,1.76,0,0,1-2.18,2,8.88,8.88,0,0,0-2.61-.35,2.57,2.57,0,0,0-1.38.36,1,1,0,0,0-.16,1.51,2.52,2.52,0,0,0,.62.45c.75.35,1.51.69,2.28,1a13.79,13.79,0,0,1,2.06,1,4.66,4.66,0,0,1,2.42,3.71A4.9,4.9,0,0,1,21,22.45,6.43,6.43,0,0,1,17.93,24c-.11,0-.15.06-.14.17,0,.3,0,.6,0,.89a1.62,1.62,0,0,1-1,1.65Z"/></svg>