<svg id="Camada_1" data-name="Camada 1" xmlns="http://www.w3.org/2000/svg" viewBox="0 0 33 33"><defs><style>.cls-1{fill:#748088;}</style></defs><path class="cls-1" d="M17,5.82H16a10.69,10.69,0,0,0,.55,21.37h.1A10.69,10.69,0,0,0,17,5.82ZM24.43,16.5a7.93,7.93,0,0,1-7.93,7.92h0a7.92,7.92,0,1,1,7.94-7.92Z"/><path class="cls-1" d="M20.32,18.36l-.12-.12-.08-.08-1.67-1.67,1.38-1.37L20,15l.47-.47a1.38,1.38,0,0,0,.31-1.42,1.36,1.36,0,0,0-1.11-.91l-.2,0a1.48,1.48,0,0,0-1.05.48l-.82.82-1.06,1.07L16,14l-.77-.77-.62-.62a1.42,1.42,0,0,0-1-.46h-.18a1.38,1.38,0,0,0-.78,2.37l.93.94,1,1-1.86,1.87a2.33,2.33,0,0,0-.26.28,1.38,1.38,0,0,0,1.13,2.18,1.32,1.32,0,0,0,.62-.15,1.88,1.88,0,0,0,.46-.35c.83-.82,1.05-1,1.87-1.87l1.86,1.86a2,2,0,0,0,.27.24,1.4,1.4,0,0,0,1.81-.16,1.37,1.37,0,0,0,.11-1.78A1.86,1.86,0,0,0,20.32,18.36Z"/></svg>