<svg id="Camada_1" data-name="Camada 1" xmlns="http://www.w3.org/2000/svg" viewBox="0 0 33 33"><defs><style>.cls-1{fill:#748088;}</style></defs><path class="cls-1" d="M24.76,23.41l-.15-.17-2.74-2.73L21.41,20l-.75-.75L18.38,17c.08-.12.15-.25.22-.38a7.36,7.36,0,0,0,0-7.11A7.35,7.35,0,0,0,11.8,5.42l-.56,0A7.07,7.07,0,0,0,7,7.14a7.45,7.45,0,0,0-2.77,6.59A7.36,7.36,0,0,0,7.15,19.1a7.53,7.53,0,0,0,4.67,1.62,7.61,7.61,0,0,0,4-1.13l5.1,5.11L22,25.81l.14.13.61.56.63-.55,1.34-1.35.58-.59ZM11.85,17.49h0v-.43a4,4,0,0,1-4-4,4,4,0,1,1,4,4v.43Z"/></svg>