<svg id="Camada_1" data-name="Camada 1" xmlns="http://www.w3.org/2000/svg" viewBox="0 0 33 33"><defs><style>.cls-1{fill:#748088;}</style></defs><path class="cls-1" d="M2.94,14.93v-.81a3.67,3.67,0,0,1,.38-.56A18,18,0,0,1,6.9,10.77a18.21,18.21,0,0,1,8-2.56,18.47,18.47,0,0,1,6.9.69,18,18,0,0,1,6.31,3.29,6.48,6.48,0,0,1,2,2v.69a5.66,5.66,0,0,1-.53.68q-2.64,2.67-5.3,5.32l-3.56,3.55a1.29,1.29,0,0,1-1.84.08l-.34-.29a3.32,3.32,0,0,0-4.24.2,1.4,1.4,0,0,1-2.05-.06c-2.7-2.73-5.42-5.43-8.13-8.15A5.53,5.53,0,0,1,2.94,14.93Zm3.14-.39.1.12c2.35,2.35,4.7,4.69,7,7.05a.22.22,0,0,0,.29,0c.41-.19.83-.37,1.24-.54a.23.23,0,0,0,.16-.21,8.52,8.52,0,0,1,.2-.84,1.34,1.34,0,0,0,.07-.27c0-1.21,0-2.41,0-3.61,0-.88,0-1.77,0-2.65A1.15,1.15,0,0,1,16,12.57a1.21,1.21,0,0,1,1.28.15A1.45,1.45,0,0,1,17.78,14c0,2,0,3.92,0,5.87a1.28,1.28,0,0,0,.07.28,6,6,0,0,1,.21.81.26.26,0,0,0,.18.26c.4.16.8.33,1.18.52a.26.26,0,0,0,.35,0q3-3,6-6.05l1.1-1.09c-.14-.11-.26-.19-.37-.29a.24.24,0,0,0-.3,0,1,1,0,0,1-1.41-.85.49.49,0,0,0-.34-.51l-.14-.08-1.74-.86c-.56.69-.87.85-1.37.64a1.51,1.51,0,0,1-.49-.38,1,1,0,0,1-.14-.91,15.17,15.17,0,0,0-3-.49c-.06,0-.14.08-.17.14a1,1,0,0,1-.91.58.93.93,0,0,1-.89-.57.23.23,0,0,0-.28-.15c-.35,0-.69.05-1,.11-.64.1-1.28.23-1.91.34,0,.78-.14,1.15-.61,1.32-.64.24-1.07-.05-1.4-.65-.72.37-1.44.74-2.14,1.12-.05,0-.07.14-.07.21a1,1,0,0,1-1.29,1,.45.45,0,0,0-.59.11Z"/></svg>