<svg id="Camada_1" data-name="Camada 1" xmlns="http://www.w3.org/2000/svg" viewBox="0 0 33 33"><defs><style>.cls-1{fill:#748088;}</style></defs><path class="cls-1" d="M16.85,27.68H15.76l-.11-.08a1.58,1.58,0,0,1-.94-1.45,6.26,6.26,0,0,1,0-.75c0-.18-.07-.23-.23-.24a11.31,11.31,0,0,1-2.7-.52,1.88,1.88,0,0,1-1.3-2.22A1.74,1.74,0,0,1,12.88,21a7.81,7.81,0,0,0,3,.49,3.21,3.21,0,0,0,1.29-.27,1.19,1.19,0,0,0,.69-1.6,1.67,1.67,0,0,0-.65-.72,7.56,7.56,0,0,0-1.83-.83,12.46,12.46,0,0,1-2.83-1.29,4.46,4.46,0,0,1-2.24-3.42,4.6,4.6,0,0,1,1.38-3.88,6.11,6.11,0,0,1,3-1.58c.14,0,.17-.09.17-.21,0-.28,0-.55,0-.83a1.58,1.58,0,0,1,1-1.51L16,5.32h.88l.1.06A1.59,1.59,0,0,1,18,6.93c0,.18,0,.36,0,.54s0,.19.18.21c.56.07,1.13.14,1.7.24a1.85,1.85,0,0,1,1.69,1.6,1.76,1.76,0,0,1-2.18,2.05,8.9,8.9,0,0,0-2.62-.35,2.64,2.64,0,0,0-1.37.35,1,1,0,0,0-.16,1.51,2.33,2.33,0,0,0,.62.46c.75.35,1.51.69,2.28,1a14.33,14.33,0,0,1,2.06,1,4.64,4.64,0,0,1,2.42,3.71,4.87,4.87,0,0,1-1.5,4.13,6.27,6.27,0,0,1-3.11,1.59c-.11,0-.15.07-.15.18,0,.29,0,.59,0,.89a1.6,1.6,0,0,1-1,1.64S16.86,27.67,16.85,27.68Z"/></svg>