<svg id="Camada_1" data-name="Camada 1" xmlns="http://www.w3.org/2000/svg" viewBox="0 0 33 33"><defs><style>.cls-1{fill:#748088;}</style></defs><path class="cls-1" d="M24.19,9.87c-.17-.1-.25-.16-.34-.2-2.33-.93-4.66-1.87-7-2.79a.92.92,0,0,0-.61,0Q12.64,8.27,9,9.72s-.07,0-.17.13l.07,0-.07,0C9,10,9,10,9,10.05q3.6,1.45,7.21,2.88a.92.92,0,0,0,.61,0c2.33-.92,4.66-1.86,7-2.79.09,0,.17-.1.34-.2h-.05Z"/><path class="cls-1" d="M15.44,15.19c0-.16-.22-.39-.39-.46-2.28-.93-7.6-3-8.07-3.23,0,.26,0,2.27,0,2.27s0,6.76,0,7.74a.66.66,0,0,0,.43.71C9.94,23.48,12.48,24.76,15,26c.12.06.24.09.43.16C15.46,25.34,15.46,15.91,15.44,15.19Z"/><path class="cls-1" d="M26.05,11.54a1.68,1.68,0,0,0-.35.09l-7.8,3.11a.48.48,0,0,0-.34.53c0,.69,0,10.49,0,10.91l.25-.06q4-2,8-4a.63.63,0,0,0,.25-.47C26.06,20.77,26.05,12.3,26.05,11.54Z"/></svg>