<svg id="Camada_1" data-name="Camada 1" xmlns="http://www.w3.org/2000/svg" viewBox="0 0 33 33"><defs><style>.cls-1{fill:#748088;}</style></defs><path class="cls-1" d="M17.46,21.65v-.16h-11v1.34l.09.27a4.9,4.9,0,0,0,.26.67,3.57,3.57,0,0,0,2.54,1.91l.12,0h9.37a5.23,5.23,0,0,1-1.3-2.88A9.4,9.4,0,0,1,17.46,21.65Z"/><path class="cls-1" d="M13.21,7.29V19.66h5a1,1,0,0,1,1.06,1.06v1.39a3.62,3.62,0,0,0,2.93,3.56l.12,0h1.2l.23-.07a3.65,3.65,0,0,0,.56-.18,3.56,3.56,0,0,0,2.21-2.91l0-.11V7.29Zm10.15,9.44a1.07,1.07,0,0,1-.77.33,1.1,1.1,0,0,1-.63-.2,1.9,1.9,0,0,1-.21-.19l-1.44-1.44-1.45,1.45a2,2,0,0,1-.35.27,1.17,1.17,0,0,1-.49.11,1.06,1.06,0,0,1-.87-1.68,1.07,1.07,0,0,1,.2-.22l1.44-1.45L18,12.93l-.72-.72a1.07,1.07,0,0,1,.6-1.84H18a1.11,1.11,0,0,1,.8.36l.48.48.6.59.4.41.82-.83.64-.64a1.15,1.15,0,0,1,.81-.37h.15a1.08,1.08,0,0,1,.63,1.81c-.12.12-.24.25-.37.37l-.1.1-1.06,1.06L23.12,15l.06.06.1.1.17.19A1.07,1.07,0,0,1,23.36,16.73Z"/></svg>