<svg id="Camada_1" data-name="Camada 1" xmlns="http://www.w3.org/2000/svg" viewBox="0 0 33 33"><defs><style>.cls-1{fill:#748088;}</style></defs><path class="cls-1" d="M9.32,20.21c0-.27.06-.54.11-.81a7.23,7.23,0,0,1,14-.9,14.05,14.05,0,0,1,.31,1.57l0,.14V21l0,.05a2.38,2.38,0,0,1-2.05,2.05s0,0-.05,0H11.45l-.09,0a2.41,2.41,0,0,1-2-1.94c0-.07,0-.13,0-.19Z"/><path class="cls-1" d="M16.88,3.76a8,8,0,0,1,1,.25,3.62,3.62,0,0,1-.52,6.91,3.62,3.62,0,0,1-2.81-6.53,3.51,3.51,0,0,1,1.59-.6l.13,0Z"/><path class="cls-1" d="M9.32,20.92c0,.06,0,.12,0,.19a2.41,2.41,0,0,0,2,1.94l.09,0H9.32Z"/><path class="cls-1" d="M21.66,23.08s0,0,.05,0A2.38,2.38,0,0,0,23.76,21l0-.05v2.13Z"/></svg>