<svg id="Camada_1" data-name="Camada 1" xmlns="http://www.w3.org/2000/svg" viewBox="0 0 61.79 55.66"><defs><style>.cls-1{fill:#bdccd1;}.cls-2{fill:#adc0c6;}.cls-3{fill:#fff;}.cls-4{fill:#7c9aa4;}</style></defs><path class="cls-1" d="M59.1,40.5a1.19,1.19,0,0,1,0-2.38V36.6a1.2,1.2,0,0,1,0-2.39V32.69a1.19,1.19,0,0,1,0-2.38V28.78a1.19,1.19,0,1,1,0-2.38V24.57a1.19,1.19,0,1,1,0-2.38V20.66a1.19,1.19,0,1,1,0-2.38V16.75a1.19,1.19,0,0,1-.21-2.36,2,2,0,0,0-1.78-1.12H4.67a2,2,0,0,0-1.78,1.12,1.2,1.2,0,0,1,1,1.17,1.19,1.19,0,0,1-1.19,1.19v1.53a1.19,1.19,0,1,1,0,2.38v1.53a1.19,1.19,0,0,1,0,2.38V26.4a1.19,1.19,0,0,1,0,2.38v1.53a1.19,1.19,0,1,1,0,2.38v1.52a1.2,1.2,0,0,1,0,2.39v1.52a1.19,1.19,0,0,1,0,2.38,2,2,0,0,0,2,1.89H57.12A2,2,0,0,0,59.1,40.5Z"/><path class="cls-2" d="M55.68,41H5.54V14.62H55.68ZM6.54,40H54.68V15.62H6.54Z"/><path class="cls-3" d="M53.42,38.73v.08H47.9v-.08Zm-5.52-.19v.08h5.52v-.08Zm0-1.72v.08h5.52v-.08Zm0-.29v.08h5.52v-.08Zm0-.28v.07h5.52v-.07Zm0-.32v.2h5.52v-.2Zm0-.18v.1h5.52v-.1Zm0-.4v.33h5.52v-.33Zm0-.4v.23h5.52V35Zm0-.55v.22h5.52V34.4Zm0-8.24v.08h5.52v-.08Zm0-.28V26h5.52v-.07Zm0-.29v.08h5.52v-.08Zm0-.32v.21h5.52v-.21Zm0-.17v.1h5.52v-.1Zm0-.41V25h5.52v-.33Zm0-.39v.22h5.52V24.3Zm0-.56V24h5.52v-.23Zm0-.51v.22h5.52v-.22Zm0-.56v.23h5.52v-.23Zm0,11v.5h5.52v-.5Zm0-.55v.44h5.52v-.44Zm0-.47V33h5.52v-.35Zm0,5.66v.08h5.52v-.08Zm0-.33v.22h5.52V38Zm0-.41V38h5.52v-.34Zm0-.5v.43h5.52v-.43Zm0-14.72v.08h5.52v-.08Zm0-.19v.07h5.52V22.2Zm0-1.72v.07h5.52v-.07Zm0-.29v.08h5.52v-.08Zm0-.29V20h5.52V19.9Zm0-.31v.2h5.52v-.2Zm0-.18v.1h5.52v-.1Zm0-.41v.33h5.52V19Zm0-.39v.22h5.52v-.22Zm0-.56v.23h5.52v-.23Zm0-.68v.5h5.52v-.5Zm0,4.64v.07h5.52V22Zm0-.34v.22h5.52v-.22Zm0-.4v.33h5.52v-.33Zm0-.51v.44h5.52v-.44Zm0,11.7v.07h5.52v-.07Zm0-.2v.08h5.52v-.08Zm0-1.72v.08h5.52v-.08Zm0-.28v.07h5.52v-.07Zm0-.29V30h5.52V30Zm0-.32v.2h5.52v-.2Zm0-.17v.1h5.52v-.1Zm0-.41v.33h5.52v-.33Zm0-.39v.22h5.52v-.22Zm0-.56v.23h5.52v-.23Zm0-.43v.25h5.52v-.25Zm0-.76v.4h5.52v-.4Zm0-.52v.35h5.52v-.35Zm0,5.66v.08h5.52v-.08Zm0-.33V32h5.52v-.22Zm0-.4v.33h5.52v-.33Zm0-.51v.44h5.52v-.44Z"/><path class="cls-4" d="M8.84,36.1h1a1.38,1.38,0,0,1,.59.12.93.93,0,0,1,.4.36,1,1,0,0,1,.15.54,1,1,0,0,1-.15.54.91.91,0,0,1-.4.35,1.25,1.25,0,0,1-.59.13h-1Zm.94,1.58a.57.57,0,0,0,.42-.15.53.53,0,0,0,.16-.41.51.51,0,0,0-.16-.41.57.57,0,0,0-.42-.15H9.42v1.12Z"/><path class="cls-4" d="M12.59,37.74h-.87l-.16.4H11l.91-2h.56l.91,2h-.6Zm-.17-.42-.26-.66-.27.66Z"/><path class="cls-4" d="M13.84,36.55h-.62V36.1h1.83v.45h-.63v1.59h-.58Z"/><path class="cls-4" d="M16.53,37.74h-.87l-.16.4h-.59l.91-2h.56l.91,2h-.6Zm-.17-.42-.26-.66-.27.66Z"/><path class="cls-4" d="M18.27,37.09a.33.33,0,0,1-.1-.23.33.33,0,0,1,.1-.24.32.32,0,0,1,.24-.09.36.36,0,0,1,.24.09.32.32,0,0,1,.09.24.34.34,0,0,1-.33.33A.3.3,0,0,1,18.27,37.09Zm0,1a.33.33,0,0,1-.1-.24.32.32,0,0,1,.34-.32.36.36,0,0,1,.24.09.32.32,0,0,1,.09.23.3.3,0,0,1-.1.24.32.32,0,0,1-.23.09A.32.32,0,0,1,18.27,38.07Z"/><path class="cls-4" d="M20.3,38.05a.87.87,0,0,1-.32-.36,1.53,1.53,0,0,1,0-1.14.9.9,0,0,1,.32-.37.91.91,0,0,1,.47-.12.88.88,0,0,1,.46.12.78.78,0,0,1,.32.37,1.41,1.41,0,0,1,0,1.14.75.75,0,0,1-.32.36.8.8,0,0,1-.46.13A.83.83,0,0,1,20.3,38.05Zm.7-.49a.83.83,0,0,0,.09-.44.84.84,0,0,0-.09-.45.27.27,0,0,0-.23-.14.28.28,0,0,0-.24.14,1,1,0,0,0-.08.45,1,1,0,0,0,.08.44.27.27,0,0,0,.24.15A.26.26,0,0,0,21,37.56Z"/><path class="cls-4" d="M23.55,37.26a.51.51,0,0,1,.08.28.58.58,0,0,1-.11.34.76.76,0,0,1-.32.22,1.26,1.26,0,0,1-.46.08,1.3,1.3,0,0,1-.46-.08.76.76,0,0,1-.32-.22.58.58,0,0,1-.11-.34.51.51,0,0,1,.08-.28.62.62,0,0,1,.22-.2.58.58,0,0,1-.17-.18.56.56,0,0,1-.05-.23.48.48,0,0,1,.1-.31.64.64,0,0,1,.29-.21,1.29,1.29,0,0,1,.84,0,.64.64,0,0,1,.29.21.48.48,0,0,1,.1.31.43.43,0,0,1-.05.23.55.55,0,0,1-.16.18A.67.67,0,0,1,23.55,37.26ZM23,37.7a.2.2,0,0,0,.09-.18.23.23,0,0,0-.09-.19.43.43,0,0,0-.44,0,.23.23,0,0,0-.09.19.2.2,0,0,0,.09.18.38.38,0,0,0,.44,0Zm-.39-1.18a.19.19,0,0,0-.07.16.2.2,0,0,0,.06.15.3.3,0,0,0,.36,0,.21.21,0,0,0,.07-.15.22.22,0,0,0-.07-.16.28.28,0,0,0-.18-.06A.24.24,0,0,0,22.57,36.52Z"/><path class="cls-4" d="M23.92,38.07a.33.33,0,0,1-.1-.24.32.32,0,0,1,.34-.32.36.36,0,0,1,.24.09.32.32,0,0,1,.09.23.32.32,0,0,1-.09.24.36.36,0,0,1-.24.09A.34.34,0,0,1,23.92,38.07Z"/><path class="cls-4" d="M25.06,38.05a.79.79,0,0,1-.31-.36,1.41,1.41,0,0,1,0-1.14.81.81,0,0,1,.31-.37.94.94,0,0,1,.47-.12.88.88,0,0,1,.46.12.78.78,0,0,1,.32.37,1.41,1.41,0,0,1,0,1.14.75.75,0,0,1-.32.36.8.8,0,0,1-.46.13A.85.85,0,0,1,25.06,38.05Zm.7-.49a.83.83,0,0,0,.09-.44.84.84,0,0,0-.09-.45.26.26,0,0,0-.46,0,.84.84,0,0,0-.09.45.83.83,0,0,0,.09.44.25.25,0,0,0,.46,0Z"/><path class="cls-4" d="M28.31,37.26a.51.51,0,0,1,.08.28.58.58,0,0,1-.11.34.79.79,0,0,1-.31.22,1.36,1.36,0,0,1-.47.08A1.3,1.3,0,0,1,27,38.1a.67.67,0,0,1-.31-.22.51.51,0,0,1-.11-.34.51.51,0,0,1,.07-.28.62.62,0,0,1,.22-.2.46.46,0,0,1-.16-.18.44.44,0,0,1-.06-.23.48.48,0,0,1,.1-.31.64.64,0,0,1,.29-.21,1.09,1.09,0,0,1,.42-.07,1.18,1.18,0,0,1,.43.07.61.61,0,0,1,.28.21.49.49,0,0,1,.11.31.44.44,0,0,1-.06.23.55.55,0,0,1-.16.18A.67.67,0,0,1,28.31,37.26Zm-.59.44a.2.2,0,0,0,.09-.18.23.23,0,0,0-.09-.19.34.34,0,0,0-.22-.06.36.36,0,0,0-.22.06.22.22,0,0,0-.08.19.19.19,0,0,0,.08.18.31.31,0,0,0,.22.07A.29.29,0,0,0,27.72,37.7Zm-.39-1.18a.19.19,0,0,0-.07.16.18.18,0,0,0,.07.15.24.24,0,0,0,.17.06.24.24,0,0,0,.18-.06.21.21,0,0,0,.07-.15.22.22,0,0,0-.07-.16.24.24,0,0,0-.18-.06A.24.24,0,0,0,27.33,36.52Z"/><path class="cls-4" d="M28.68,38.07a.32.32,0,0,1-.09-.24.32.32,0,0,1,.09-.23.37.37,0,0,1,.48,0,.32.32,0,0,1,.09.23.32.32,0,0,1-.09.24.37.37,0,0,1-.48,0Z"/><path class="cls-4" d="M31,37.68v.46H29.45v-.36l.76-.72a.54.54,0,0,0,.15-.18.28.28,0,0,0,0-.15.17.17,0,0,0-.07-.15.27.27,0,0,0-.19-.06.46.46,0,0,0-.21,0,.57.57,0,0,0-.16.15l-.43-.24a.93.93,0,0,1,.34-.31,1,1,0,0,1,.51-.11,1,1,0,0,1,.41.07.57.57,0,0,1,.28.22.52.52,0,0,1,.1.33.67.67,0,0,1-.07.31,1.22,1.22,0,0,1-.27.33l-.39.36Z"/><path class="cls-4" d="M31.64,38.05a.81.81,0,0,1-.32-.36,1.53,1.53,0,0,1,0-1.14.83.83,0,0,1,.32-.37.91.91,0,0,1,.47-.12.9.9,0,0,1,.46.12.83.83,0,0,1,.32.37,1.53,1.53,0,0,1,0,1.14.81.81,0,0,1-.32.36.82.82,0,0,1-.46.13A.83.83,0,0,1,31.64,38.05Zm.7-.49a.84.84,0,0,0,.08-.44.86.86,0,0,0-.08-.45.28.28,0,0,0-.23-.14.28.28,0,0,0-.24.14.86.86,0,0,0-.08.45.84.84,0,0,0,.08.44.27.27,0,0,0,.24.15A.27.27,0,0,0,32.34,37.56Z"/><path class="cls-4" d="M34.76,37.68v.46H33.17v-.36l.76-.72a.54.54,0,0,0,.15-.18.28.28,0,0,0,0-.15.17.17,0,0,0-.07-.15.27.27,0,0,0-.19-.06.42.42,0,0,0-.37.2l-.43-.24a.85.85,0,0,1,.34-.31,1,1,0,0,1,.51-.11,1.07,1.07,0,0,1,.41.07.62.62,0,0,1,.28.22.52.52,0,0,1,.1.33.67.67,0,0,1-.07.31,1.11,1.11,0,0,1-.28.33l-.38.36Z"/><path class="cls-4" d="M36.5,37.68v.46H34.91v-.36l.77-.72a1,1,0,0,0,.15-.18.4.4,0,0,0,0-.15.19.19,0,0,0-.06-.15.3.3,0,0,0-.2-.06.39.39,0,0,0-.36.2l-.43-.24a.9.9,0,0,1,.33-.31,1.06,1.06,0,0,1,.51-.11,1.09,1.09,0,0,1,.42.07.62.62,0,0,1,.28.22.59.59,0,0,1,.1.33.82.82,0,0,1-.07.31,1.11,1.11,0,0,1-.28.33l-.38.36Z"/><path class="cls-4" d="M13.65,17.84l-2.12,4.93H10.16L8.05,17.84H9.56l1.34,3.21,1.37-3.21Z"/><path class="cls-4" d="M17.07,21.81H15l-.39,1H13.18l2.17-4.93h1.38l2.18,4.93H17.46Zm-.4-1L16,19.21l-.63,1.57Z"/><path class="cls-4" d="M19.31,17.84H20.7v3.83h2.36v1.1H19.31Z"/><path class="cls-4" d="M27.57,21.69v1.08h-4V17.84h3.87v1.08H25v.83h2.19v1H25v.9Z"/><path class="cls-4" d="M9.71,28.37a2.5,2.5,0,0,1-1-.91,2.59,2.59,0,0,1-.35-1.33,2.55,2.55,0,0,1,.35-1.32,2.52,2.52,0,0,1,1-.92,2.91,2.91,0,0,1,1.39-.32,3,3,0,0,1,1.22.23,2.25,2.25,0,0,1,.91.7l-.89.8a1.46,1.46,0,0,0-1.17-.58,1.41,1.41,0,0,0-.71.18,1.22,1.22,0,0,0-.49.49,1.7,1.7,0,0,0,0,1.48,1.22,1.22,0,0,0,.49.49,1.41,1.41,0,0,0,.71.18A1.46,1.46,0,0,0,12.34,27l.89.81a2.32,2.32,0,0,1-.91.69,3,3,0,0,1-1.22.24A2.91,2.91,0,0,1,9.71,28.37Z"/><path class="cls-4" d="M14.82,28.37a2.63,2.63,0,0,1-1-.92,2.66,2.66,0,0,1,0-2.64,2.53,2.53,0,0,1,1-.91,3,3,0,0,1,1.41-.33,2.92,2.92,0,0,1,1.4.33,2.4,2.4,0,0,1,1,.91,2.53,2.53,0,0,1-1,3.56,2.92,2.92,0,0,1-1.4.33A3,3,0,0,1,14.82,28.37Zm2.08-1a1.14,1.14,0,0,0,.48-.49,1.61,1.61,0,0,0,0-1.48,1.14,1.14,0,0,0-.48-.49,1.27,1.27,0,0,0-.67-.18,1.3,1.3,0,0,0-.68.18,1.26,1.26,0,0,0-.48.49,1.7,1.7,0,0,0,0,1.48,1.26,1.26,0,0,0,.48.49,1.3,1.3,0,0,0,.68.18A1.27,1.27,0,0,0,16.9,27.36Z"/><path class="cls-4" d="M24.16,28.6l0-2.62-1.27,2.13h-.62L21,26.05V28.6H19.7V23.66h1.15l1.74,2.85,1.69-2.85h1.15V28.6Z"/><path class="cls-4" d="M29.84,23.89a1.72,1.72,0,0,1,.77.63,1.83,1.83,0,0,1,.26,1,1.77,1.77,0,0,1-.26,1,1.74,1.74,0,0,1-.77.64,2.89,2.89,0,0,1-1.16.22h-.86V28.6H26.43V23.66h2.25A2.73,2.73,0,0,1,29.84,23.89ZM29.25,26a.66.66,0,0,0,.21-.53.7.7,0,0,0-.21-.54,1,1,0,0,0-.65-.19h-.78v1.45h.78A1,1,0,0,0,29.25,26Z"/><path class="cls-4" d="M33.71,27.29H33V28.6h-1.4V23.66h2.26a2.79,2.79,0,0,1,1.16.23,1.69,1.69,0,0,1,.76.63,1.87,1.87,0,0,1,0,1.9,1.71,1.71,0,0,1-.72.63L36.1,28.6H34.6ZM34.37,25a1,1,0,0,0-.65-.19H33v1.45h.77a1,1,0,0,0,.65-.19.64.64,0,0,0,.22-.53A.67.67,0,0,0,34.37,25Z"/><path class="cls-4" d="M40.07,27.64H38l-.39,1H36.17l2.18-4.94h1.38l2.18,4.94H40.46Zm-.41-1L39,25l-.64,1.58Z"/><path class="cls-4" d="M10.8,33.11H10v1.31H8.64V29.49H10.9a2.76,2.76,0,0,1,1.16.22,1.71,1.71,0,0,1,.76.64,1.69,1.69,0,0,1,.27,1,1.64,1.64,0,0,1-1,1.56l1.06,1.55H11.7Zm.66-2.33a.94.94,0,0,0-.65-.19H10V32h.77a1,1,0,0,0,.65-.18.67.67,0,0,0,.22-.54A.65.65,0,0,0,11.46,30.78Z"/><path class="cls-4" d="M17.36,33.94a2.13,2.13,0,0,1-1.22.55v.78H15.3v-.76a4,4,0,0,1-1-.18,2.76,2.76,0,0,1-.79-.35L14,33a2.87,2.87,0,0,0,.77.35,2.92,2.92,0,0,0,.86.14c.54,0,.8-.14.8-.41a.33.33,0,0,0-.22-.31,3.91,3.91,0,0,0-.74-.21,7.36,7.36,0,0,1-.93-.26,1.57,1.57,0,0,1-.64-.44A1.19,1.19,0,0,1,13.6,31,1.39,1.39,0,0,1,14,30a2,2,0,0,1,1.26-.53v-.78h.84v.76a4.89,4.89,0,0,1,.78.15,3,3,0,0,1,.65.27l-.43,1a2.78,2.78,0,0,0-1.36-.38,1.19,1.19,0,0,0-.61.12.36.36,0,0,0-.19.32.33.33,0,0,0,.23.3,4.69,4.69,0,0,0,.72.2,7.1,7.1,0,0,1,.94.26,1.61,1.61,0,0,1,.64.43,1.19,1.19,0,0,1,.27.82A1.38,1.38,0,0,1,17.36,33.94Z"/><path class="cls-4" d="M20.21,29.49v4.93h-1.4V30.57H17.9V29.49Z"/><path class="cls-4" d="M22,34.22a2,2,0,0,1-.77-.89A3,3,0,0,1,21,32a3.09,3.09,0,0,1,.28-1.38,2,2,0,0,1,.77-.89,2.15,2.15,0,0,1,1.13-.3A2,2,0,0,1,25,30.58,3.09,3.09,0,0,1,25.3,32,3,3,0,0,1,25,33.33a2,2,0,0,1-.77.89,2.11,2.11,0,0,1-1.12.3A2.15,2.15,0,0,1,22,34.22ZM23.69,33a2.91,2.91,0,0,0,0-2.17.64.64,0,0,0-1.13,0,2.91,2.91,0,0,0,0,2.17.64.64,0,0,0,1.13,0Z"/><path class="cls-4" d="M26.83,34.22a2,2,0,0,1-.77-.89A3,3,0,0,1,25.78,32a3.09,3.09,0,0,1,.28-1.38,2,2,0,0,1,.77-.89,2.08,2.08,0,0,1,3,.89A3.23,3.23,0,0,1,30.13,32a3.19,3.19,0,0,1-.28,1.37,2,2,0,0,1-.77.89,2.26,2.26,0,0,1-2.25,0ZM28.52,33a3,3,0,0,0,0-2.17.64.64,0,0,0-1.13,0,2.91,2.91,0,0,0,0,2.17.64.64,0,0,0,1.13,0Z"/><path class="cls-3" d="M46,38.33a.75.75,0,0,1-.32.34.86.86,0,0,1-.48.13.83.83,0,0,1-.47-.13.9.9,0,0,1-.33-.34,1,1,0,0,1-.12-.49,1.1,1.1,0,0,1,.07-.41.86.86,0,0,1,.23-.3l.2.21a.63.63,0,0,0-.21.48.73.73,0,0,0,.08.33.61.61,0,0,0,.22.23.72.72,0,0,0,.66,0,.61.61,0,0,0,.22-.23.73.73,0,0,0,.08-.33.63.63,0,0,0-.21-.48l.2-.21a.76.76,0,0,1,.23.3,1.1,1.1,0,0,1,.07.41A1,1,0,0,1,46,38.33Z"/><path class="cls-3" d="M46,36.5a.79.79,0,0,1-.33.35.91.91,0,0,1-.47.12.94.94,0,0,1-.47-.12.93.93,0,0,1-.33-.35,1,1,0,0,1-.12-.49,1,1,0,0,1,.12-.5.93.93,0,0,1,.33-.35A.91.91,0,0,1,45.2,35a1,1,0,0,1,.48.12.83.83,0,0,1,.32.35,1,1,0,0,1,.12.5A1,1,0,0,1,46,36.5Zm-.25-.82a.58.58,0,0,0-.22-.22.63.63,0,0,0-.33-.09.57.57,0,0,0-.32.09.54.54,0,0,0-.23.22.73.73,0,0,0-.08.33.72.72,0,0,0,.08.32.54.54,0,0,0,.23.22.57.57,0,0,0,.32.09.63.63,0,0,0,.33-.09.58.58,0,0,0,.22-.22.72.72,0,0,0,.08-.32A.73.73,0,0,0,45.75,35.68Z"/><path class="cls-3" d="M44.3,34.68V33.9a1.19,1.19,0,0,1,.11-.51.9.9,0,0,1,.32-.35.91.91,0,0,1,.47-.12.89.89,0,0,1,.47.12.9.9,0,0,1,.32.35,1.19,1.19,0,0,1,.11.51v.78Zm1.52-.76a.75.75,0,0,0-.08-.35.52.52,0,0,0-.21-.23.62.62,0,0,0-.33-.08.57.57,0,0,0-.32.08.49.49,0,0,0-.22.23.75.75,0,0,0-.07.35v.43h1.23Z"/><path class="cls-3" d="M45.82,31.22h.28v1.35H44.3V31.26h.28v1h.47v-.86h.27v.86h.5Z"/><path class="cls-3" d="M45.08,30.22a.2.2,0,0,1-.15.06.21.21,0,0,1-.16-.06.22.22,0,0,1,0-.3.21.21,0,0,1,.16-.06.21.21,0,0,1,.15.36Zm1,0a.23.23,0,0,1-.16.06.21.21,0,1,1,0-.42.23.23,0,0,1,.16.06.22.22,0,0,1,0,.3Z"/><path class="cls-3" d="M44.3,28.31h1.8v.34H44.58V29H44.3Z"/><path class="cls-3" d="M45.82,26.66h.28V28h-.22l-.68-.71a.76.76,0,0,0-.2-.16.41.41,0,0,0-.17-.05.24.24,0,0,0-.2.09.42.42,0,0,0-.06.25.52.52,0,0,0,.18.42l-.18.23a.67.67,0,0,1-.21-.28.87.87,0,0,1-.08-.4.69.69,0,0,1,.14-.47.45.45,0,0,1,.37-.17.67.67,0,0,1,.28.06,1.25,1.25,0,0,1,.29.23l.46.48Z"/><path class="cls-3" d="M45.21,25.32a.53.53,0,0,1,.63-.05.5.5,0,0,1,.21.24.94.94,0,0,1,.07.39,1.14,1.14,0,0,1,0,.37,1.28,1.28,0,0,1-.15.31l-.26-.15a.73.73,0,0,0,.13-.23,1,1,0,0,0,0-.29.47.47,0,0,0-.07-.28.22.22,0,0,0-.2-.1.22.22,0,0,0-.19.09.51.51,0,0,0-.07.3v.16h-.23l-.49-.41v.82H44.3V25.27h.23l.51.43A.64.64,0,0,1,45.21,25.32Z"/><path class="cls-3" d="M45.69,23.37v.32h.41V24h-.41v1h-.23l-1.16-.89v-.35l1.11.83V24h-.36v-.31h.36v-.32Z"/><path class="cls-3" d="M45.15,22.12a.48.48,0,0,1,.4-.19.6.6,0,0,1,.29.08.61.61,0,0,1,.21.24,1,1,0,0,1,.07.4,1.18,1.18,0,0,1,0,.37,1.05,1.05,0,0,1-.15.3l-.26-.14a.79.79,0,0,0,.17-.53.47.47,0,0,0-.07-.28.22.22,0,0,0-.2-.1.25.25,0,0,0-.21.11.69.69,0,0,0-.07.37v.44l-1-.1V22h.28v.77l.42,0v-.17A.87.87,0,0,1,45.15,22.12Z"/><path class="cls-3" d="M45.06,20.61a.51.51,0,0,1,.19-.22.57.57,0,0,1,.29-.08.54.54,0,0,1,.31.09.5.5,0,0,1,.2.23.74.74,0,0,1,.07.34.71.71,0,0,1-.23.57,1,1,0,0,1-.66.2,1.08,1.08,0,0,1-.52-.11.69.69,0,0,1-.32-.31.85.85,0,0,1-.11-.46,1.09,1.09,0,0,1,0-.26,1,1,0,0,1,.08-.21l.25.12a.72.72,0,0,0-.08.35.51.51,0,0,0,.16.4.64.64,0,0,0,.46.15h0A.52.52,0,0,1,45,21.2a.76.76,0,0,1,0-.27A.66.66,0,0,1,45.06,20.61Zm.72.12a.27.27,0,0,0-.22-.1.28.28,0,0,0-.23.1.4.4,0,0,0-.08.26.36.36,0,0,0,.09.26.28.28,0,0,0,.22.11.3.3,0,0,0,.22-.1.47.47,0,0,0,.08-.28A.39.39,0,0,0,45.78,20.73Z"/><path class="cls-3" d="M44.3,18.79h.23l1.57.7v.36l-1.51-.68v.71h.3v.31H44.3Z"/><path class="cls-3" d="M45.33,17.25a.43.43,0,0,1,.25-.07.48.48,0,0,1,.29.09.65.65,0,0,1,.19.26,1.12,1.12,0,0,1,.06.38,1.14,1.14,0,0,1-.06.39.55.55,0,0,1-.19.25.48.48,0,0,1-.29.09.43.43,0,0,1-.25-.07.63.63,0,0,1-.18-.21.39.39,0,0,1-.15.16.4.4,0,0,1-.22.06.5.5,0,0,1-.27-.08.61.61,0,0,1-.17-.24.91.91,0,0,1-.06-.35,1,1,0,0,1,.06-.35.51.51,0,0,1,.17-.23.44.44,0,0,1,.27-.09.4.4,0,0,1,.22.06.5.5,0,0,1,.15.17A.67.67,0,0,1,45.33,17.25Zm-.72.91a.2.2,0,0,0,.18.09.23.23,0,0,0,.19-.09.44.44,0,0,0,.06-.25.46.46,0,0,0-.06-.25.23.23,0,0,0-.19-.09.2.2,0,0,0-.18.09.41.41,0,0,0-.07.25A.37.37,0,0,0,44.61,18.16Zm1.18-.54a.28.28,0,0,0-.22-.11.25.25,0,0,0-.21.11.5.5,0,0,0-.07.29.48.48,0,0,0,.07.29.25.25,0,0,0,.21.11.28.28,0,0,0,.22-.11.48.48,0,0,0,.07-.29A.5.5,0,0,0,45.79,17.62Z"/></svg>