<svg id="Camada_1" data-name="Camada 1" xmlns="http://www.w3.org/2000/svg" viewBox="0 0 33 33"><defs><style>.cls-1{fill:#748088;}</style></defs><path class="cls-1" d="M25.35,26.85l-.15-.17L22.46,24,22,23.48l-.74-.75L19,20.46c.07-.12.15-.25.21-.38a7.34,7.34,0,0,0,0-7.11,7.36,7.36,0,0,0-6.81-4.11l-.56,0a7.06,7.06,0,0,0-4.26,1.7,7.42,7.42,0,0,0-2.76,6.59,7.34,7.34,0,0,0,2.93,5.37,7.51,7.51,0,0,0,4.67,1.62,7.61,7.61,0,0,0,4-1.13l5.1,5.11,1.11,1.11.13.13.61.56.63-.55L25.32,28l.58-.59ZM12.44,20.93h0V20.5a4,4,0,0,1-4-4,4,4,0,1,1,4,4v.43Z"/></svg>