<svg id="Camada_1" data-name="Camada 1" xmlns="http://www.w3.org/2000/svg" viewBox="0 0 55.66 55.66"><defs><style>.cls-1{fill:#bdccd1;}.cls-2{fill:#7c9aa4;}</style></defs><path class="cls-1" d="M48.89,24.29V38.52c-.14-.1-.13,0-.16.11a4.39,4.39,0,0,1-4.58,3.25H19c0-.15,0-.3,0-.45V25.92a.65.65,0,0,1,.07-.46,5.56,5.56,0,0,1,1.71,3.27.84.84,0,0,0,.89.83.87.87,0,0,0,.84-.89,2.73,2.73,0,0,0,0-.57,7.26,7.26,0,0,0-1.75-3.43c-.09-.11-.24-.18-.22-.37H48.89Z"/><path class="cls-1" d="M19,13.79H44.19A4.39,4.39,0,0,1,48.73,17c0,.08,0,.21.16.11v5.43l-.54,0h-25c2-1.67,2.38-3.15,1.19-4.57a3.44,3.44,0,0,0-2.81-1.53c-1.26.06-1.93.93-2.65,1.89Z"/><path class="cls-2" d="M19,13.79v4.55c.72-1,1.39-1.83,2.65-1.89A3.44,3.44,0,0,1,24.5,18c1.19,1.42.81,2.9-1.19,4.57h25l.54,0v1.72H20.55c0,.19.13.26.22.37a7.26,7.26,0,0,1,1.75,3.43,2.73,2.73,0,0,1,0,.57.87.87,0,0,1-.84.89.84.84,0,0,1-.89-.83,5.56,5.56,0,0,0-1.71-3.27.65.65,0,0,0-.07.46v15.5c0,.15,0,.3,0,.45a12.49,12.49,0,0,1-1.73,0V25.5a5,5,0,0,0-1.78,3.17.88.88,0,0,1-.45.78.84.84,0,0,1-.9,0,1,1,0,0,1-.38-1,6.46,6.46,0,0,1,1.58-3.5l.52-.64H6.77V22.57h6.28c-2.35-2.11-2.47-3.26-.6-5.21a2.88,2.88,0,0,1,2.09-.91c1.31,0,2,.86,2.7,1.78l.05,0c0-1.47,0-2.93,0-4.4A12.49,12.49,0,0,1,19,13.79Zm.33,8.44A11.57,11.57,0,0,0,22.48,21c1.17-.74,1.22-1.32.23-2.3a1,1,0,0,0-1.77.08A9.85,9.85,0,0,0,19.37,22.23Zm-2.38,0a12.47,12.47,0,0,0-1.28-3.1C15,18,14.32,17.9,13.4,18.92c-.66.73-.62,1.22.17,1.81A10.76,10.76,0,0,0,17,22.23Z"/><path class="cls-1" d="M6.77,24.29H15.9l-.52.64a6.46,6.46,0,0,0-1.58,3.5,1,1,0,0,0,.38,1,.84.84,0,0,0,.9,0,.88.88,0,0,0,.45-.78,5,5,0,0,1,1.78-3.17V41.87c-2,0-4.06,0-6.09,0a4.36,4.36,0,0,1-4.28-3.2c0-.07,0-.25-.17-.15Z"/><path class="cls-1" d="M17.31,13.79c0,1.47,0,2.93,0,4.4l-.05,0c-.68-.92-1.39-1.8-2.7-1.78a2.88,2.88,0,0,0-2.09.91c-1.87,1.95-1.75,3.1.6,5.21H6.77V17.14c.14.09.13,0,.16-.11a4.39,4.39,0,0,1,4.54-3.25Z"/><path class="cls-1" d="M19.37,22.23a9.85,9.85,0,0,1,1.57-3.5,1,1,0,0,1,1.77-.08c1,1,.94,1.56-.23,2.3A11.57,11.57,0,0,1,19.37,22.23Z"/><path class="cls-1" d="M17,22.23a10.76,10.76,0,0,1-3.42-1.5c-.79-.59-.83-1.08-.17-1.81.92-1,1.57-1,2.31.21A12.47,12.47,0,0,1,17,22.23Z"/></svg>