<svg id="Camada_1" data-name="Camada 1" xmlns="http://www.w3.org/2000/svg" viewBox="0 0 69.35 55.66"><defs><style>.cls-1{fill:#bdccd1;}.cls-2{fill:#96aeb6;}.cls-3{fill:#8a929c;}.cls-4{fill:#d4dce6;}.cls-5{fill:#6d757f;}.cls-6{fill:#7c9aa4;}.cls-7{fill:#678a96;}.cls-8{fill:#eff7ff;}.cls-9{fill:#fff;}.cls-10{fill:#d2d9e3;}</style></defs><path class="cls-1" d="M37.66,32H64a1.15,1.15,0,0,0,1.15-1.15V14.2A1.15,1.15,0,0,0,64,13.05H37.66a1.15,1.15,0,0,0-1.15,1.15V30.81A1.15,1.15,0,0,0,37.66,32Z"/><rect class="cls-2" x="58.7" y="25.13" width="4.53" height="4.52" rx="0.38"/><path class="cls-3" d="M38.19,15.6a1.48,1.48,0,1,1,1.47,1.47,1.47,1.47,0,0,1-1.47-1.47Z"/><path class="cls-4" d="M40.11,15.6a1.48,1.48,0,1,1,1.48,1.47,1.47,1.47,0,0,1-1.48-1.47Z"/><path class="cls-2" d="M55.76,22.06h0a.46.46,0,0,1,.46-.46h6.55a.45.45,0,0,1,.45.46h0a.45.45,0,0,1-.45.45H56.22A.46.46,0,0,1,55.76,22.06Z"/><path class="cls-2" d="M60.46,16.06h0a.46.46,0,0,1,.46-.46h1.85a.47.47,0,0,1,.46.46h0a.46.46,0,0,1-.46.45H60.92A.45.45,0,0,1,60.46,16.06Z"/><path class="cls-2" d="M55.47,16.06h0a.45.45,0,0,1,.45-.46h1.86a.45.45,0,0,1,.45.46h0a.45.45,0,0,1-.45.45H55.92A.45.45,0,0,1,55.47,16.06Z"/><rect class="cls-5" x="50.48" y="15.6" width="2.77" height="0.91" rx="0.46"/><rect class="cls-5" x="45.49" y="15.6" width="2.77" height="0.91" rx="0.46"/><path class="cls-2" d="M52,19.52h0a.47.47,0,0,1,.46-.46h10.3a.47.47,0,0,1,.46.46h0a.46.46,0,0,1-.46.45H52.47A.46.46,0,0,1,52,19.52Z"/><path class="cls-2" d="M14.8,10a3.21,3.21,0,0,0-.49,1.7V33.33A3.21,3.21,0,0,0,14.8,35a3.46,3.46,0,0,0,3,1.68H48.13a3.46,3.46,0,0,0,3-1.68,3.21,3.21,0,0,0,.49-1.7V11.68A3.21,3.21,0,0,0,51.1,10a3.46,3.46,0,0,0-3-1.68H17.77a3.46,3.46,0,0,0-3,1.68Z"/><path class="cls-6" d="M10.83,14.29V30.71a3.48,3.48,0,0,0,3.48,3.48H50.84a3.47,3.47,0,0,0,3.47-3.48V14.29a3.47,3.47,0,0,0-3.47-3.47H14.31a3.48,3.48,0,0,0-3.48,3.47Z"/><polygon class="cls-2" points="19.96 32.35 19.96 12.66 28.7 12.66 28.7 32.35 19.96 32.35 19.96 32.35"/><polygon class="cls-7" points="27.61 32.35 27.61 12.66 28.7 12.66 28.7 32.35 27.61 32.35 27.61 32.35"/><path class="cls-8" d="M33.42,27.05v5a.28.28,0,0,1-.28.28h-2a.27.27,0,0,1-.28-.28v-5a.28.28,0,0,1,.28-.28h2a.29.29,0,0,1,.28.28Z"/><path class="cls-8" d="M33.42,20v5a.28.28,0,0,1-.28.28h-2a.27.27,0,0,1-.28-.28V20a.27.27,0,0,1,.28-.28h2a.28.28,0,0,1,.28.28Z"/><path class="cls-8" d="M33.42,12.94v5a.29.29,0,0,1-.28.28h-2a.28.28,0,0,1-.28-.28v-5a.27.27,0,0,1,.28-.28h2a.28.28,0,0,1,.28.28Z"/><path class="cls-8" d="M37.76,27.05v5a.28.28,0,0,1-.28.28h-2a.27.27,0,0,1-.28-.28v-5a.28.28,0,0,1,.28-.28h2a.29.29,0,0,1,.28.28Z"/><path class="cls-8" d="M37.76,20v5a.28.28,0,0,1-.28.28h-2a.27.27,0,0,1-.28-.28V20a.27.27,0,0,1,.28-.28h2a.28.28,0,0,1,.28.28Z"/><path class="cls-8" d="M37.76,12.94v5a.29.29,0,0,1-.28.28h-2a.28.28,0,0,1-.28-.28v-5a.27.27,0,0,1,.28-.28h2a.28.28,0,0,1,.28.28Z"/><path class="cls-8" d="M42.1,27.05v5a.28.28,0,0,1-.28.28h-2a.27.27,0,0,1-.28-.28v-5a.28.28,0,0,1,.28-.28h2a.29.29,0,0,1,.28.28Z"/><path class="cls-8" d="M42.1,20v5a.28.28,0,0,1-.28.28h-2a.27.27,0,0,1-.28-.28V20a.27.27,0,0,1,.28-.28h2a.28.28,0,0,1,.28.28Z"/><path class="cls-8" d="M42.1,12.94v5a.29.29,0,0,1-.28.28h-2a.28.28,0,0,1-.28-.28v-5a.27.27,0,0,1,.28-.28h2a.28.28,0,0,1,.28.28Z"/><path class="cls-8" d="M46.44,27.05v5a.28.28,0,0,1-.28.28h-2a.27.27,0,0,1-.27-.28v-5a.28.28,0,0,1,.27-.28h2a.29.29,0,0,1,.28.28Z"/><path class="cls-8" d="M46.44,20v5a.28.28,0,0,1-.28.28h-2A.27.27,0,0,1,43.9,25V20a.27.27,0,0,1,.27-.28h2a.28.28,0,0,1,.28.28Z"/><path class="cls-8" d="M46.44,12.94v5a.29.29,0,0,1-.28.28h-2A.28.28,0,0,1,43.9,18v-5a.27.27,0,0,1,.27-.28h2a.28.28,0,0,1,.28.28Z"/><path class="cls-7" d="M50.77,27.05v5a.27.27,0,0,1-.27.28h-2a.28.28,0,0,1-.28-.28v-5a.29.29,0,0,1,.28-.28h2a.28.28,0,0,1,.27.28Z"/><path class="cls-4" d="M50.77,20v5a.27.27,0,0,1-.27.28h-2a.28.28,0,0,1-.28-.28V20a.28.28,0,0,1,.28-.28h2a.27.27,0,0,1,.27.28Z"/><path class="cls-7" d="M50.77,12.94v5a.28.28,0,0,1-.27.28h-2a.29.29,0,0,1-.28-.28v-5a.28.28,0,0,1,.28-.28h2a.27.27,0,0,1,.27.28Z"/><polygon class="cls-1" points="17.6 30.73 17.6 14.28 18.53 14.28 18.53 30.73 17.6 30.73 17.6 30.73"/><polygon class="cls-9" points="4.5 15.88 3.75 16.61 4.5 17.35 3.75 18.09 4.5 18.82 3.75 19.56 4.5 20.3 3.75 21.03 4.5 21.77 3.75 22.5 4.5 23.24 3.75 23.98 4.5 24.71 3.75 25.45 4.5 26.19 3.75 26.92 4.5 27.66 3.75 28.4 4.5 29.13 3.75 29.87 17.6 29.87 17.6 15.14 3.75 15.14 4.5 15.88 4.5 15.88"/><path class="cls-10" d="M6.41,16.32h0a.33.33,0,0,1,.33.33V28.36a.33.33,0,0,1-.33.33h0a.33.33,0,0,1-.33-.33V16.65A.33.33,0,0,1,6.41,16.32Z"/><rect class="cls-10" x="8.34" y="16.32" width="0.66" height="12.37" rx="0.33"/><rect class="cls-10" x="10.59" y="16.32" width="0.66" height="12.37" rx="0.33"/><rect class="cls-10" x="12.85" y="16.32" width="0.66" height="12.37" rx="0.33"/><path class="cls-10" d="M15.44,16.32h0a.33.33,0,0,1,.33.33V28.36a.33.33,0,0,1-.33.33h0a.32.32,0,0,1-.33-.33V16.65A.33.33,0,0,1,15.44,16.32Z"/></svg>