<svg id="Camada_1" data-name="Camada 1" xmlns="http://www.w3.org/2000/svg" viewBox="0 0 33 33"><defs><style>.cls-1{fill:#748088;}</style></defs><path class="cls-1" d="M17,5.82H16a10.69,10.69,0,0,0,.55,21.37h.1A10.69,10.69,0,0,0,17,5.82ZM24.43,16.5a7.93,7.93,0,0,1-7.93,7.92h0a7.92,7.92,0,1,1,7.94-7.92Z"/><path class="cls-1" d="M21.35,13.44a1.35,1.35,0,0,0-1.11-.91l-.2,0A1.48,1.48,0,0,0,19,13l-.82.82L15.38,16.6l-.51-.52-.34-.33-.62-.63a1.46,1.46,0,0,0-1-.46H12.7A1.38,1.38,0,0,0,11.91,17l3.47,3.48,5.68-5.68A1.36,1.36,0,0,0,21.35,13.44Z"/></svg>