<svg id="Camada_1" data-name="Camada 1" xmlns="http://www.w3.org/2000/svg" viewBox="0 0 33 33"><defs><style>.cls-1{fill:#748088;}</style></defs><path class="cls-1" d="M17,10.52H16a10.7,10.7,0,0,0,.55,21.38h.1A10.69,10.69,0,0,0,17,10.52ZM24.43,21.2a7.93,7.93,0,0,1-7.93,7.92h0a7.92,7.92,0,1,1,7.94-7.92Z"/><path class="cls-1" d="M21.35,18.14a1.35,1.35,0,0,0-1.11-.91l-.2,0a1.48,1.48,0,0,0-1.05.48l-.82.82L15.38,21.3l-.51-.52-.34-.33-.62-.63a1.46,1.46,0,0,0-1-.46H12.7a1.38,1.38,0,0,0-.79,2.36l3.47,3.48,5.68-5.68A1.36,1.36,0,0,0,21.35,18.14Z"/></svg>