<svg id="Camada_1" data-name="Camada 1" xmlns="http://www.w3.org/2000/svg" viewBox="0 0 33 33"><defs><style>.cls-1{fill:#748088;}</style></defs><path class="cls-1" d="M16.39,5.18H15.32a10.7,10.7,0,0,0,.54,21.38H16a10.7,10.7,0,0,0,.42-21.38Zm7.39,10.68a7.93,7.93,0,0,1-7.93,7.92h0a7.92,7.92,0,1,1,7.94-7.92Z"/><path class="cls-1" d="M19.22,17.28l-.82-.82-.59-.6,1.53-1.53a1.38,1.38,0,0,0-.82-2.3.71.71,0,0,0-.2,0,1.48,1.48,0,0,0-1.05.48l-.82.82-.6.6-1.53-1.54a1.41,1.41,0,0,0-2.32,1,1.48,1.48,0,0,0,.48,1l.82.81.6.6L12.37,17.4a1.38,1.38,0,0,0,.82,2.3h.2a1.48,1.48,0,0,0,1-.48l.82-.82.59-.6,1.54,1.54a1.37,1.37,0,0,0,1.38.29,1.38,1.38,0,0,0,.92-1.11,1.41,1.41,0,0,0,0-.2A1.48,1.48,0,0,0,19.22,17.28Z"/></svg>