<svg id="Camada_1" data-name="Camada 1" xmlns="http://www.w3.org/2000/svg" viewBox="0 0 33 33"><defs><style>.cls-1{fill:#748088;}</style></defs><path class="cls-1" d="M12.19,18.82V8.11a1.41,1.41,0,1,1,2.82,0c0,1.12,0,2.25,0,3.38s0,2.09,0,3.13a1.21,1.21,0,0,0,0,.19.36.36,0,0,0,.36.3.35.35,0,0,0,.35-.32,1.21,1.21,0,0,0,0-.19c0-2.76,0-5.51,0-8.27a1.41,1.41,0,0,1,2.13-1.22,1.37,1.37,0,0,1,.69,1.12v8.37a.82.82,0,0,0,0,.22.35.35,0,0,0,.36.29.36.36,0,0,0,.34-.32V7.2A1.41,1.41,0,0,1,22.1,7c0,.1,0,.2,0,.31V15.5c0,.29.13.46.36.46s.36-.17.36-.46c0-1.89,0-3.77,0-5.66a1.34,1.34,0,0,1,.82-1.29,1.37,1.37,0,0,1,1.5.19,1.41,1.41,0,0,1,.52,1.15c0,1.16,0,2.31,0,3.47,0,2.81,0,5.63,0,8.44a6.91,6.91,0,0,1-.59,2.83,5.23,5.23,0,0,1-3.23,3,9.85,9.85,0,0,1-7.2-.36,6.46,6.46,0,0,1-2.81-2.47c-1.39-2.09-2.77-4.2-4.16-6.3A1.83,1.83,0,0,1,7.39,17a1.63,1.63,0,0,1,2.52-1,2.58,2.58,0,0,1,.61.58c.54.71,1.05,1.43,1.58,2.15l.05.07Z"/></svg>