<svg id="Camada_1" data-name="Camada 1" xmlns="http://www.w3.org/2000/svg" viewBox="0 0 33 33"><defs><style>.cls-1{fill:#748088;}</style></defs><path class="cls-1" d="M15.34,27.91a10.28,10.28,0,1,1,10.33-10A10.29,10.29,0,0,1,15.34,27.91Zm8-10.26a8,8,0,1,0-8,8A8,8,0,0,0,23.35,17.65Z"/><path class="cls-1" d="M13.9,15.31V12.67a1.18,1.18,0,0,1,1.16-1.24,1.17,1.17,0,0,1,1.16,1.24c0,1.27,0,2.55,0,3.83,0,.32.09.43.42.43.84,0,1.69,0,2.53,0a1.16,1.16,0,0,1,1.25,1.18,1.14,1.14,0,0,1-1.26,1.12h-4A1.13,1.13,0,0,1,13.9,18Z"/></svg>