<svg id="Camada_1" data-name="Camada 1" xmlns="http://www.w3.org/2000/svg" viewBox="0 0 65.93 55.66"><defs><style>.cls-1{fill:#bdccd1;}.cls-2{fill:#96aeb6;}.cls-3{fill:#8a929c;}.cls-4{fill:#d4dce6;}.cls-5{fill:#6d757f;}.cls-6{fill:#7c9aa4;}.cls-7{fill:#678a96;}.cls-8{fill:#eff7ff;}.cls-9{fill:#fff;}.cls-10{fill:#d2d9e3;}</style></defs><path class="cls-1" d="M36.17,37.28H62.52a1.14,1.14,0,0,0,1.15-1.15V19.53a1.14,1.14,0,0,0-1.15-1.15H36.17A1.14,1.14,0,0,0,35,19.53v16.6a1.14,1.14,0,0,0,1.15,1.15Z"/><rect class="cls-2" x="57.21" y="30.45" width="4.53" height="4.52" rx="0.38"/><path class="cls-3" d="M36.7,20.93a1.48,1.48,0,1,1,1.47,1.47,1.47,1.47,0,0,1-1.47-1.47Z"/><path class="cls-4" d="M38.62,20.93A1.48,1.48,0,1,1,40.1,22.4a1.48,1.48,0,0,1-1.48-1.47Z"/><path class="cls-2" d="M54.27,27.38h0a.46.46,0,0,1,.46-.46h6.55a.46.46,0,0,1,.45.46h0a.46.46,0,0,1-.45.46H54.73A.46.46,0,0,1,54.27,27.38Z"/><path class="cls-2" d="M59,21.38h0a.45.45,0,0,1,.45-.45h1.86a.45.45,0,0,1,.45.45h0a.46.46,0,0,1-.45.46H59.42A.46.46,0,0,1,59,21.38Z"/><path class="cls-2" d="M54,21.38h0a.46.46,0,0,1,.45-.46h1.86a.46.46,0,0,1,.45.46h0a.46.46,0,0,1-.45.46H54.43A.46.46,0,0,1,54,21.38Z"/><rect class="cls-5" x="48.99" y="20.93" width="2.77" height="0.91" rx="0.46"/><rect class="cls-5" x="44" y="20.92" width="2.77" height="0.91" rx="0.46"/><path class="cls-2" d="M50.52,24.84h0a.46.46,0,0,1,.46-.45h10.3a.46.46,0,0,1,.46.45h0a.47.47,0,0,1-.46.46H51A.47.47,0,0,1,50.52,24.84Z"/><path class="cls-2" d="M13.31,15.3A3.22,3.22,0,0,0,12.82,17V38.65a3.22,3.22,0,0,0,.49,1.71,3.47,3.47,0,0,0,3,1.67H46.64a3.47,3.47,0,0,0,3-1.67,3.31,3.31,0,0,0,.49-1.71V17a3.31,3.31,0,0,0-.49-1.71,3.45,3.45,0,0,0-3-1.67H16.28a3.45,3.45,0,0,0-3,1.67Z"/><path class="cls-6" d="M9.34,19.62V36a3.47,3.47,0,0,0,3.47,3.47H49.35A3.47,3.47,0,0,0,52.82,36V19.62a3.47,3.47,0,0,0-3.47-3.47H12.81a3.47,3.47,0,0,0-3.47,3.47Z"/><polygon class="cls-2" points="18.46 37.67 18.46 17.98 27.21 17.98 27.21 37.67 18.46 37.67 18.46 37.67"/><polygon class="cls-7" points="26.12 37.67 26.12 17.98 27.21 17.98 27.21 37.67 26.12 37.67 26.12 37.67"/><path class="cls-8" d="M31.93,32.38v5a.29.29,0,0,1-.28.28h-2a.28.28,0,0,1-.28-.28v-5a.27.27,0,0,1,.28-.28h2a.28.28,0,0,1,.28.28Z"/><path class="cls-8" d="M31.93,25.32v5a.29.29,0,0,1-.28.28h-2a.28.28,0,0,1-.28-.28v-5a.28.28,0,0,1,.28-.28h2a.29.29,0,0,1,.28.28Z"/><path class="cls-8" d="M31.93,18.26v5a.28.28,0,0,1-.28.28h-2a.27.27,0,0,1-.28-.28v-5a.28.28,0,0,1,.28-.28h2a.29.29,0,0,1,.28.28Z"/><path class="cls-8" d="M36.27,32.38v5a.29.29,0,0,1-.28.28H34a.28.28,0,0,1-.28-.28v-5A.27.27,0,0,1,34,32.1h2a.28.28,0,0,1,.28.28Z"/><path class="cls-8" d="M36.27,25.32v5a.29.29,0,0,1-.28.28H34a.28.28,0,0,1-.28-.28v-5A.28.28,0,0,1,34,25h2a.29.29,0,0,1,.28.28Z"/><path class="cls-8" d="M36.27,18.26v5a.28.28,0,0,1-.28.28H34a.27.27,0,0,1-.28-.28v-5A.28.28,0,0,1,34,18h2a.29.29,0,0,1,.28.28Z"/><path class="cls-8" d="M40.61,32.38v5a.29.29,0,0,1-.28.28h-2a.28.28,0,0,1-.27-.28v-5a.27.27,0,0,1,.27-.28h2a.28.28,0,0,1,.28.28Z"/><path class="cls-8" d="M40.61,25.32v5a.29.29,0,0,1-.28.28h-2a.28.28,0,0,1-.27-.28v-5a.28.28,0,0,1,.27-.28h2a.29.29,0,0,1,.28.28Z"/><path class="cls-8" d="M40.61,18.26v5a.28.28,0,0,1-.28.28h-2a.27.27,0,0,1-.27-.28v-5a.28.28,0,0,1,.27-.28h2a.29.29,0,0,1,.28.28Z"/><path class="cls-8" d="M44.94,32.38v5a.28.28,0,0,1-.27.28h-2a.29.29,0,0,1-.28-.28v-5a.28.28,0,0,1,.28-.28h2a.27.27,0,0,1,.27.28Z"/><path class="cls-8" d="M44.94,25.32v5a.28.28,0,0,1-.27.28h-2a.29.29,0,0,1-.28-.28v-5a.29.29,0,0,1,.28-.28h2a.28.28,0,0,1,.27.28Z"/><path class="cls-8" d="M44.94,18.26v5a.27.27,0,0,1-.27.28h-2a.28.28,0,0,1-.28-.28v-5a.29.29,0,0,1,.28-.28h2a.28.28,0,0,1,.27.28Z"/><path class="cls-7" d="M49.28,32.38v5a.28.28,0,0,1-.28.28H47a.29.29,0,0,1-.28-.28v-5A.28.28,0,0,1,47,32.1h2a.27.27,0,0,1,.28.28Z"/><path class="cls-4" d="M49.28,25.32v5a.28.28,0,0,1-.28.28H47a.29.29,0,0,1-.28-.28v-5A.29.29,0,0,1,47,25h2a.28.28,0,0,1,.28.28Z"/><path class="cls-7" d="M49.28,18.26v5a.27.27,0,0,1-.28.28H47a.28.28,0,0,1-.28-.28v-5A.29.29,0,0,1,47,18h2a.28.28,0,0,1,.28.28Z"/><polygon class="cls-1" points="16.11 36.05 16.11 19.6 17.04 19.6 17.04 36.05 16.11 36.05 16.11 36.05"/><polygon class="cls-9" points="3 21.2 2.26 21.94 3 22.68 2.26 23.41 3 24.15 2.26 24.88 3 25.62 2.26 26.36 3 27.09 2.26 27.83 3 28.57 2.26 29.3 3 30.04 2.26 30.77 3 31.51 2.26 32.25 3 32.98 2.26 33.72 3 34.46 2.26 35.19 16.11 35.19 16.11 20.47 2.26 20.47 3 21.2 3 21.2"/><path class="cls-10" d="M4.92,21.64h0a.33.33,0,0,1,.33.33V33.69a.33.33,0,0,1-.33.33h0a.33.33,0,0,1-.33-.33V22A.33.33,0,0,1,4.92,21.64Z"/><rect class="cls-10" x="6.85" y="21.64" width="0.66" height="12.37" rx="0.33"/><rect class="cls-10" x="9.1" y="21.64" width="0.66" height="12.37" rx="0.33"/><rect class="cls-10" x="11.36" y="21.64" width="0.66" height="12.37" rx="0.33"/><path class="cls-10" d="M14,21.64h0a.33.33,0,0,1,.33.33V33.69A.33.33,0,0,1,14,34h0a.33.33,0,0,1-.33-.33V22A.33.33,0,0,1,14,21.64Z"/></svg>